<svg id="Livello_1" data-name="Livello 1" xmlns="http://www.w3.org/2000/svg" viewBox="0 0 86.71 75.09"><defs><style>.cls-1{fill:#ffed00;stroke-width:2px;}.cls-1,.cls-2{stroke:#1d1d1b;stroke-miterlimit:10;}.cls-2{fill:#fff;}.cls-3{fill:#1d1d1b;}</style></defs><polygon class="cls-1" points="43.35 2 64.17 38.05 84.98 74.09 43.35 74.09 1.73 74.09 22.54 38.05 43.35 2"/><polygon class="cls-2" points="43.35 12.75 59.61 40.91 75.87 69.07 43.35 69.07 10.83 69.07 27.09 40.91 43.35 12.75"/><path class="cls-3" d="M49.45,36.59c0,1.54-.41,4.43-1.88,9.69l-1,4.06H44.27l-1-4.06c-1.5-5.29-1.87-8.15-1.87-9.69,0-2.62,1.56-4,4-4A3.68,3.68,0,0,1,49.45,36.59Zm-8,21.06a4,4,0,1,1,3.95,3.89A3.92,3.92,0,0,1,41.45,57.65Z" transform="translate(-2.05 -2)"/></svg>