<svg width="144" height="161" viewBox="0 0 144 161" fill="none" xmlns="http://www.w3.org/2000/svg">
<ellipse cx="72" cy="22.5" rx="23" ry="22.5" fill="url(#paint0_linear_355_20)"/>
<ellipse cx="22.5" cy="93" rx="22.5" ry="23" fill="url(#paint1_linear_355_20)"/>
<ellipse cx="121.5" cy="93" rx="22.5" ry="23" fill="url(#paint2_linear_355_20)"/>
<rect x="-0.683013" y="0.183013" width="3.9318" height="53.2498" rx="1.9659" transform="matrix(-0.866025 -0.5 -0.5 0.866025 62.755 29.9905)" fill="white" stroke="black"/>
<rect x="-0.5" y="-0.5" width="5" height="53" rx="2.5" transform="matrix(-4.37114e-08 -1 -1 4.37114e-08 98 94)" fill="white" stroke="black"/>
<rect x="81.0874" y="33.4467" width="4.9318" height="54.2498" transform="rotate(-30 81.0874 33.4467)" fill="white"/>
<rect width="4.9318" height="54.2498" transform="matrix(-0.866025 -0.5 -0.5 0.866025 63.938 30.3075)" fill="white"/>
<rect width="6" height="64" transform="matrix(-4.37114e-08 -1 -1 4.37114e-08 104 95)" fill="white"/>
<ellipse cx="22.5" cy="93" rx="22.5" ry="23" fill="white"/>
<ellipse cx="121.5" cy="93" rx="22.5" ry="23" fill="white"/>
<ellipse cx="72" cy="22.5" rx="23" ry="22.5" fill="white"/>
<path d="M21.9595 144.523C21.9595 143.859 21.7252 143.352 21.2564 143C20.7877 142.641 19.9439 142.266 18.7252 141.875C17.5064 141.477 16.5416 141.086 15.8306 140.703C13.8931 139.656 12.9244 138.246 12.9244 136.473C12.9244 135.551 13.1822 134.73 13.6978 134.012C14.2212 133.285 14.9673 132.719 15.9361 132.312C16.9127 131.906 18.0064 131.703 19.2173 131.703C20.4361 131.703 21.522 131.926 22.4752 132.371C23.4283 132.809 24.1666 133.43 24.69 134.234C25.2212 135.039 25.4869 135.953 25.4869 136.977H21.9712C21.9712 136.195 21.7252 135.59 21.233 135.16C20.7408 134.723 20.0494 134.504 19.1587 134.504C18.2994 134.504 17.6314 134.688 17.1548 135.055C16.6783 135.414 16.44 135.891 16.44 136.484C16.44 137.039 16.7173 137.504 17.272 137.879C17.8345 138.254 18.6587 138.605 19.7447 138.934C21.7447 139.535 23.2017 140.281 24.1158 141.172C25.0298 142.062 25.4869 143.172 25.4869 144.5C25.4869 145.977 24.9283 147.137 23.8111 147.98C22.6939 148.816 21.19 149.234 19.2994 149.234C17.9869 149.234 16.7916 148.996 15.7134 148.52C14.6353 148.035 13.8111 147.375 13.2408 146.539C12.6783 145.703 12.397 144.734 12.397 143.633H15.9244C15.9244 145.516 17.0494 146.457 19.2994 146.457C20.1353 146.457 20.7877 146.289 21.2564 145.953C21.7252 145.609 21.9595 145.133 21.9595 144.523ZM29.5106 147.336C29.5106 146.797 29.6903 146.359 30.0497 146.023C30.4169 145.688 30.8739 145.52 31.4208 145.52C31.9755 145.52 32.4325 145.688 32.7919 146.023C33.1591 146.359 33.3427 146.797 33.3427 147.336C33.3427 147.867 33.163 148.301 32.8036 148.637C32.4442 148.965 31.9833 149.129 31.4208 149.129C30.8661 149.129 30.4091 148.965 30.0497 148.637C29.6903 148.301 29.5106 147.867 29.5106 147.336ZM51.0656 134.785H45.8391V149H42.3234V134.785H37.1672V131.938H51.0656V134.785ZM51.6909 147.336C51.6909 146.797 51.8706 146.359 52.23 146.023C52.5972 145.688 53.0542 145.52 53.6011 145.52C54.1558 145.52 54.6128 145.688 54.9722 146.023C55.3394 146.359 55.523 146.797 55.523 147.336C55.523 147.867 55.3433 148.301 54.9839 148.637C54.6245 148.965 54.1636 149.129 53.6011 149.129C53.0464 149.129 52.5894 148.965 52.23 148.637C51.8706 148.301 51.6909 147.867 51.6909 147.336ZM64.1405 149H60.6248V131.938H64.1405V149ZM69.0431 147.336C69.0431 146.797 69.2228 146.359 69.5822 146.023C69.9494 145.688 70.4064 145.52 70.9533 145.52C71.508 145.52 71.965 145.688 72.3244 146.023C72.6916 146.359 72.8752 146.797 72.8752 147.336C72.8752 147.867 72.6955 148.301 72.3361 148.637C71.9767 148.965 71.5158 149.129 70.9533 149.129C70.3986 149.129 69.9416 148.965 69.5822 148.637C69.2228 148.301 69.0431 147.867 69.0431 147.336ZM82.3481 131.938L86.7309 144.312L91.0903 131.938H95.7075V149H92.1802V144.336L92.5317 136.285L87.9263 149H85.5122L80.9184 136.297L81.27 144.336V149H77.7544V131.938H82.3481ZM100.411 147.336C100.411 146.797 100.591 146.359 100.95 146.023C101.317 145.688 101.774 145.52 102.321 145.52C102.876 145.52 103.333 145.688 103.692 146.023C104.059 146.359 104.243 146.797 104.243 147.336C104.243 147.867 104.063 148.301 103.704 148.637C103.345 148.965 102.884 149.129 102.321 149.129C101.766 149.129 101.309 148.965 100.95 148.637C100.591 148.301 100.411 147.867 100.411 147.336ZM118.755 145.484H112.591L111.419 149H107.681L114.032 131.938H117.29L123.677 149H119.939L118.755 145.484ZM113.54 142.637H117.806L115.661 136.25L113.54 142.637ZM126.904 147.336C126.904 146.797 127.083 146.359 127.443 146.023C127.81 145.688 128.267 145.52 128.814 145.52C129.369 145.52 129.826 145.688 130.185 146.023C130.552 146.359 130.736 146.797 130.736 147.336C130.736 147.867 130.556 148.301 130.197 148.637C129.837 148.965 129.376 149.129 128.814 149.129C128.259 149.129 127.802 148.965 127.443 148.637C127.083 148.301 126.904 147.867 126.904 147.336Z" fill="white"/>
<defs>
<linearGradient id="paint0_linear_355_20" x1="72" y1="0" x2="72" y2="45" gradientUnits="userSpaceOnUse">
<stop stop-color="#1A1F3D"/>
<stop offset="0.377834" stop-color="#277681"/>
<stop offset="0.685144" stop-color="#257883"/>
<stop offset="1" stop-color="#2FC6B4"/>
</linearGradient>
<linearGradient id="paint1_linear_355_20" x1="22.5" y1="70" x2="22.5" y2="116" gradientUnits="userSpaceOnUse">
<stop stop-color="#1A1F3D"/>
<stop offset="0.377834" stop-color="#277681"/>
<stop offset="0.685144" stop-color="#257883"/>
<stop offset="1" stop-color="#2FC6B4"/>
</linearGradient>
<linearGradient id="paint2_linear_355_20" x1="121.5" y1="70" x2="121.5" y2="116" gradientUnits="userSpaceOnUse">
<stop stop-color="#1A1F3D"/>
<stop offset="0.377834" stop-color="#277681"/>
<stop offset="0.685144" stop-color="#257883"/>
<stop offset="1" stop-color="#2FC6B4"/>
</linearGradient>
</defs>
</svg>
