<svg width="102" height="106" viewBox="0 0 102 106" fill="none" xmlns="http://www.w3.org/2000/svg">
<path d="M52.5662 47.7526C78.4587 47.7526 99.4488 40.1601 99.4488 30.7943C99.4488 21.4284 78.4587 13.8359 52.5662 13.8359C26.6737 13.8359 5.68359 21.4284 5.68359 30.7943C5.68359 40.1601 26.6737 47.7526 52.5662 47.7526Z" fill="#EDEDED" stroke="#1D1D1B" stroke-width="0.5" stroke-miterlimit="10"/>
<path d="M52.5662 96.8816C78.4587 96.8816 99.4488 89.289 99.4488 79.9232C99.4488 70.5574 78.4587 62.9648 52.5662 62.9648C26.6737 62.9648 5.68359 70.5574 5.68359 79.9232C5.68359 89.289 26.6737 96.8816 52.5662 96.8816Z" fill="white" stroke="#1D1D1B" stroke-miterlimit="10"/>
<path d="M5.68407 79.9228V30.7944C5.68407 30.7944 7.98733 47.7528 52.5667 47.7528C98.6196 47.7528 99.4493 30.7944 99.4493 30.7944V79.9228C99.4493 79.9228 100.106 96.5098 52.5667 96.8811C5.02776 97.2525 5.68407 79.9228 5.68407 79.9228Z" fill="url(#paint0_linear_361_42)" stroke="#1D1D1B" stroke-miterlimit="10"/>
<path d="M52.5673 46.3774C76.3603 46.3774 95.6483 39.4006 95.6483 30.7944C95.6483 22.1882 76.3603 15.2114 52.5673 15.2114C28.7743 15.2114 9.48633 22.1882 9.48633 30.7944C9.48633 39.4006 28.7743 46.3774 52.5673 46.3774Z" fill="#C6C6C6" stroke="#1D1D1B" stroke-width="0.5" stroke-miterlimit="10"/>
<path d="M95.6483 30.7949C95.6483 39.391 76.3553 46.3779 52.5673 46.3779C28.7793 46.3779 9.48633 39.391 9.48633 30.7949C9.48633 30.7949 34.7356 20.9885 43.3295 23.918C51.9234 26.8476 65.1114 30.6986 65.1114 27.0264C65.1114 23.3541 70.0647 21.8962 73.1976 25.1971C76.3306 28.498 82.6088 27.2189 83.7605 29.227C84.9121 31.235 95.6483 30.7949 95.6483 30.7949Z" fill="white" stroke="#1D1D1B" stroke-miterlimit="10"/>
<path d="M47.3035 64.1201C47.2416 62.7447 47.1549 60.9705 47.1673 59.7051C46.8577 60.9017 46.4739 62.1808 46.0033 63.5837L44.3811 68.5625H43.4771L41.9416 63.6799C41.5082 62.3046 41.1367 60.9292 40.8767 59.7051C40.8767 60.9705 40.7776 62.6897 40.7033 64.2301L40.4557 68.6175H39.3164L39.9603 58.3848H41.4835L43.0561 63.3361C43.44 64.5877 43.7496 65.7155 43.9849 66.7745C44.2201 65.743 44.5421 64.6289 44.9507 63.3361L46.5977 58.3848H48.1208L48.6905 68.6175H47.5264L47.3035 64.1201Z" fill="#1D1D1B"/>
<path d="M51.7246 58.3848V68.6175H50.4863V58.3848H51.7246Z" fill="#1D1D1B"/>
<path d="M53.8047 58.3848H55.043V67.5172H58.9808V68.6175H53.8047V58.3848Z" fill="#1D1D1B"/>
<path d="M60.2559 58.3846H61.4942V63.2672C61.7419 62.8683 61.9895 62.497 62.2124 62.1669L65.0358 58.3296H66.5094L63.1536 62.7308L66.7447 68.6174H65.3702L62.3239 63.5835L61.4571 64.7113V68.6174H60.2188L60.2559 58.3846Z" fill="#1D1D1B"/>
<path d="M47.3035 65.2066C47.2416 63.8312 47.1549 62.057 47.1673 60.7916C46.8577 61.9882 46.4738 63.2673 46.0033 64.6702L44.3811 69.649H43.4771L41.9787 64.7665C41.5453 63.3223 41.1738 62.0157 40.9138 60.7916C40.9138 62.057 40.8147 63.7762 40.7404 65.3166L40.4928 69.7041H39.3535L39.9974 59.4575H41.5206L43.0932 64.4226C43.4771 65.6742 43.7867 66.802 44.022 67.8611C44.2572 66.8295 44.5792 65.7155 44.9879 64.4226L46.6348 59.4575H48.1579L48.7276 69.7041H47.5635L47.3035 65.2066Z" fill="white"/>
<path d="M51.7246 59.4575V69.7041H50.4863V59.4575H51.7246Z" fill="white"/>
<path d="M53.8047 59.4575H55.043V68.59H58.9808V69.7041H53.8047V59.4575Z" fill="white"/>
<path d="M60.2559 59.4575H61.4942V64.3951L62.2124 63.3086L65.0358 59.4575H66.5094L63.1536 63.8037L66.7447 69.7041H65.3702L62.3239 64.6427L61.4571 65.7705V69.6766H60.2188L60.2559 59.4575Z" fill="white"/>
<path d="M18.4023 32.7199C18.4023 32.7199 36.5808 25.5679 39.2927 28.3187L18.4023 32.7199Z" fill="#C6C6C6"/>
<path d="M81.1211 32.7199C82.087 32.5549 83.0529 32.4861 84.0064 32.3761C84.9599 32.266 85.9381 32.2248 86.904 32.1698C88.8234 32.0597 90.7552 32.0322 92.6746 32.0322H93.6528L93.2566 32.9675C92.8148 33.974 92.1958 34.8719 91.4362 35.6082C90.7121 36.3148 89.9037 36.9072 89.0339 37.3687C88.1813 37.8263 87.2837 38.1725 86.3592 38.4002C85.4491 38.6059 84.5257 38.7301 83.5977 38.7716C84.0435 38.5928 84.4769 38.4415 84.9103 38.3039C85.3437 38.1664 85.7648 37.9601 86.1486 37.7675C86.9787 37.3846 87.7782 36.9245 88.5386 36.3922C89.2839 35.8913 89.9774 35.3009 90.6066 34.6317C91.2042 33.9972 91.6986 33.2527 92.0678 32.4311L92.6374 33.3526C90.718 33.3526 88.7863 33.3526 86.8669 33.215C85.901 33.215 84.9351 33.0913 83.9692 33.0225C83.0033 32.9537 82.087 32.8712 81.1211 32.7199Z" fill="#C6C6C6"/>
<defs>
<linearGradient id="paint0_linear_361_42" x1="5.68407" y1="63.8446" x2="99.4493" y2="63.8446" gradientUnits="userSpaceOnUse">
<stop stop-color="white"/>
<stop offset="1" stop-color="#878787"/>
</linearGradient>
</defs>
</svg>
