<svg width="106" height="138" viewBox="0 0 106 138" fill="none" xmlns="http://www.w3.org/2000/svg">
<path d="M92.5398 42.202C92.6074 39.1642 76.6299 36.3419 56.8529 35.8982C37.076 35.4545 20.9888 37.5574 20.9212 40.5953C20.8536 43.6331 36.8312 46.4554 56.6081 46.8991C76.3851 47.3428 92.4722 45.2399 92.5398 42.202Z" fill="#EDEDED" stroke="#1D1D1B" stroke-miterlimit="10"/>
<path d="M32.682 87.8184H32.6659C30.9519 87.8184 29.5625 89.2135 29.5625 90.9344V125.422C29.5625 127.143 30.9519 128.538 32.6659 128.538H32.682C34.396 128.538 35.7854 127.143 35.7854 125.422V90.9344C35.7854 89.2135 34.396 87.8184 32.682 87.8184Z" fill="#EDEDED" stroke="#1D1D1B" stroke-width="0.5" stroke-miterlimit="10"/>
<path d="M80.559 87.8184H80.5428C78.8289 87.8184 77.4395 89.2135 77.4395 90.9344V125.422C77.4395 127.143 78.8289 128.538 80.5428 128.538H80.559C82.273 128.538 83.6624 127.143 83.6624 125.422V90.9344C83.6624 89.2135 82.273 87.8184 80.559 87.8184Z" fill="#EDEDED" stroke="#1D1D1B" stroke-width="0.5" stroke-miterlimit="10"/>
<path d="M56.4594 79.5737H56.4432C54.7293 79.5737 53.3398 80.9688 53.3398 82.6898V117.178C53.3398 118.899 54.7293 120.294 56.4432 120.294H56.4594C58.1733 120.294 59.5628 118.899 59.5628 117.178V82.6898C59.5628 80.9688 58.1733 79.5737 56.4594 79.5737Z" fill="#EDEDED" stroke="#1D1D1B" stroke-width="0.5" stroke-miterlimit="10"/>
<path d="M91.3221 84.2012C91.4485 78.5198 75.5187 73.5545 55.7417 73.1108C35.9648 72.6671 19.83 76.913 19.7035 82.5944C19.5771 88.2757 35.507 93.241 55.2839 93.6847C75.0608 94.1284 91.1957 89.8825 91.3221 84.2012Z" fill="#EDEDED" stroke="#1D1D1B" stroke-width="0.5" stroke-miterlimit="10"/>
<path d="M19.7207 82.5921L21.0138 40.5737C21.0138 40.5737 25.4102 47.52 60.2587 46.9195C95.1071 46.319 92.5856 42.1805 92.5856 42.1805L91.3733 84.1988C91.3733 84.1988 92.0522 94.9428 52.581 93.5795C22.6301 92.5083 19.7207 82.5921 19.7207 82.5921Z" fill="url(#paint0_linear_361_58)" stroke="#1D1D1B" stroke-miterlimit="10"/>
<path d="M27.0742 16.6196L30.5655 15.1265H35.7863V17.6258H56.7988L60.4841 18.6321H64.6543V24.1176H61.9065L60.177 26.3736L63.8138 38.8541H50.7537L53.6954 27.0065H35.7863V29.3598L30.5655 29.1164L27.0742 25.6108V16.6196Z" fill="url(#paint1_linear_361_58)" stroke="#1D1D1B" stroke-width="0.25" stroke-miterlimit="10"/>
<path d="M35.7852 17.6255V27.0062" stroke="#1D1D1B" stroke-width="0.25" stroke-miterlimit="10"/>
<path d="M78.0854 26.373H66.1406V34.6177H78.0854V26.373Z" fill="url(#paint2_linear_361_58)" stroke="#1D1D1B" stroke-width="0.25" stroke-miterlimit="10"/>
<path d="M90.7736 18.6318H79.5723V32.3783H90.7736V18.6318Z" fill="url(#paint3_linear_361_58)" stroke="#1D1D1B" stroke-width="0.25" stroke-miterlimit="10"/>
<path d="M74.6098 34.6177H70.375V41.4016H74.6098V34.6177Z" fill="url(#paint4_linear_361_58)" stroke="#1D1D1B" stroke-width="0.25" stroke-miterlimit="10"/>
<path d="M86.5055 32.3623H82.5293V41.3859H86.5055V32.3623Z" fill="url(#paint5_linear_361_58)" stroke="#1D1D1B" stroke-width="0.25" stroke-miterlimit="10"/>
<path d="M61.9063 24.1173L60.4193 18.6317L56.734 17.6255L53.6953 27.0062C53.6953 27.0062 55.6834 28.6291 60.1607 26.3732" fill="#9D9D9C"/>
<path d="M61.9063 24.1173L60.4193 18.6317L56.734 17.6255L53.6953 27.0062C53.6953 27.0062 55.6834 28.6291 60.1607 26.3732" stroke="#1D1D1B" stroke-width="0.25" stroke-miterlimit="10"/>
<defs>
<linearGradient id="paint0_linear_361_58" x1="19.7207" y1="67.1578" x2="92.5856" y2="67.1578" gradientUnits="userSpaceOnUse">
<stop stop-color="white"/>
<stop offset="1" stop-color="#878787"/>
</linearGradient>
<linearGradient id="paint1_linear_361_58" x1="656.54" y1="409.717" x2="1530.28" y2="409.717" gradientUnits="userSpaceOnUse">
<stop stop-color="white"/>
<stop offset="1" stop-color="#878787"/>
</linearGradient>
<linearGradient id="paint2_linear_361_58" x1="554.922" y1="181.289" x2="643.194" y2="181.289" gradientUnits="userSpaceOnUse">
<stop stop-color="white"/>
<stop offset="1" stop-color="#878787"/>
</linearGradient>
<linearGradient id="paint3_linear_361_58" x1="631.012" y1="234.588" x2="708.637" y2="234.588" gradientUnits="userSpaceOnUse">
<stop stop-color="white"/>
<stop offset="1" stop-color="#878787"/>
</linearGradient>
<linearGradient id="paint4_linear_361_58" x1="254.76" y1="193.498" x2="265.813" y2="193.498" gradientUnits="userSpaceOnUse">
<stop stop-color="white"/>
<stop offset="1" stop-color="#878787"/>
</linearGradient>
<linearGradient id="paint5_linear_361_58" x1="285.554" y1="237.379" x2="295.375" y2="237.379" gradientUnits="userSpaceOnUse">
<stop stop-color="white"/>
<stop offset="1" stop-color="#878787"/>
</linearGradient>
</defs>
</svg>
