<svg width="100" height="74" viewBox="0 0 100 74" fill="none" xmlns="http://www.w3.org/2000/svg">
<path d="M44.2281 62.5321C63.5459 62.5321 79.2062 57.8559 79.2062 52.0876C79.2062 46.3192 63.5459 41.6431 44.2281 41.6431C24.9102 41.6431 9.25 46.3192 9.25 52.0876C9.25 57.8559 24.9102 62.5321 44.2281 62.5321Z" fill="#EDEDED" stroke="#1D1D1B" stroke-miterlimit="10"/>
<path d="M9.23828 52.0878V28.9278C9.24126 27.6148 9.7648 26.3565 10.694 25.4292C11.6233 24.5018 12.8823 23.981 14.195 23.981H73.5409C75.0313 23.981 76.4608 24.5732 77.5147 25.6274C78.5686 26.6816 79.1607 28.1114 79.1607 29.6023V52.0878C79.1607 52.0878 75.6764 63.0944 44.1827 62.5323C12.6889 61.9701 9.23828 52.0878 9.23828 52.0878Z" fill="#F7AD29"/>
<path d="M78.1492 26.9826C78.1492 32.7501 62.4923 37.4271 43.1712 37.4271C23.85 37.4271 10.2949 32.0081 10.2949 26.1844C10.2949 20.3606 23.85 16.5269 43.1712 16.5269C62.4923 16.5269 78.1492 21.2038 78.1492 26.9826Z" fill="#FADA4D"/>
<path d="M65.6957 32.5029C68.7529 37.8545 72.0799 42.6214 74.429 47.9392C75.6251 50.5241 75.9562 53.4258 75.3731 56.2138C74.7801 58.5624 73.3519 60.6143 71.3558 61.9857C69.3596 63.357 66.9323 63.9538 64.528 63.6644C62.1237 63.375 59.9073 62.2192 58.2934 60.4133C56.6795 58.6073 55.7788 56.2751 55.7598 53.8529C55.7952 50.8748 56.634 47.9616 58.1875 45.4208C59.3902 43.3297 60.1657 41.0474 61.6719 39.0912C63.1325 36.9703 64.4758 34.7709 65.6957 32.5029Z" fill="#1A9AD7"/>
<path d="M75.9123 46.2193C75.8705 45.1934 76.0467 44.1703 76.4293 43.2175C76.7961 42.183 77.5338 41.3216 78.4995 40.8002C79.4651 40.2788 80.5899 40.1346 81.6558 40.3956C82.6628 40.771 83.5245 41.4568 84.1165 42.354C84.7084 43.2513 85 44.3135 84.949 45.3873C84.949 46.1069 84.8366 46.8376 84.7467 47.5459C84.4207 50.0193 82.9371 51.672 81.0938 51.7395C78.059 51.8407 76.8339 50.9637 76.1483 48.1193C76.0304 47.4915 75.9516 46.8569 75.9123 46.2193ZM82.9371 46.2193C82.9371 43.6335 82.0604 42.0257 80.5543 41.9808C79.0481 41.9358 78.0815 43.4423 78.0028 46.0956C77.9242 48.7489 78.9245 50.5028 80.4756 50.4353C82.0267 50.3679 82.9034 48.8388 82.9371 46.1631V46.2193Z" fill="#1A9AD7"/>
<path d="M88.4787 54.4823C88.333 52.9397 88.6962 51.3918 89.5128 50.0751C89.9312 49.434 90.5197 48.922 91.2125 48.5963C91.9053 48.2707 92.675 48.1443 93.4354 48.2313C94.1943 48.2931 94.9184 48.5765 95.5178 49.0461C96.1172 49.5158 96.5656 50.1511 96.8074 50.8733C97.5927 52.9242 97.5403 55.2017 96.6613 57.2142C96.3636 58.0465 95.7982 58.7564 95.0536 59.2325C94.3091 59.7086 93.4276 59.9241 92.5475 59.845C91.6011 59.8018 90.6979 59.4358 89.9884 58.8079C89.2788 58.1799 88.8055 57.3279 88.6473 56.3935C88.5187 55.7649 88.4621 55.1237 88.4787 54.4823ZM95.3125 53.9651C95.3125 51.2443 94.4807 49.7266 92.9409 49.7491C91.4011 49.7716 90.4682 51.4917 90.3895 53.9651C90.3108 56.4385 91.3111 58.1586 92.7611 58.2261C94.4133 58.3273 95.3125 56.9107 95.3125 53.9651Z" fill="#1A9AD7"/>
<path d="M80.3301 59.8112C83.8706 53.5827 87.3774 47.4442 90.8617 41.2719C91.3113 40.4512 91.7946 39.9903 92.9074 40.4962C90.4721 44.7759 88.0668 49.0556 85.6914 53.3354C84.6237 55.2129 83.4435 57.0455 82.4993 58.9567C82.3617 59.3444 82.0769 59.6621 81.7065 59.841C81.3362 60.02 80.9103 60.0456 80.5212 59.9124L80.3301 59.8112Z" fill="#1A9AD7"/>
</svg>
