<svg width="144" height="161" viewBox="0 0 144 161" fill="none" xmlns="http://www.w3.org/2000/svg">
<ellipse cx="72" cy="22.5" rx="23" ry="22.5" fill="url(#paint0_linear_357_37)"/>
<ellipse cx="22.5" cy="93" rx="22.5" ry="23" fill="url(#paint1_linear_357_37)"/>
<ellipse cx="121.5" cy="93" rx="22.5" ry="23" fill="url(#paint2_linear_357_37)"/>
<rect x="-0.683013" y="0.183013" width="3.9318" height="53.2498" rx="1.9659" transform="matrix(-0.866025 -0.5 -0.5 0.866025 62.755 29.9905)" fill="white" stroke="black"/>
<rect x="-0.5" y="-0.5" width="5" height="53" rx="2.5" transform="matrix(-4.37114e-08 -1 -1 4.37114e-08 98 94)" fill="white" stroke="black"/>
<rect x="81.0874" y="33.4467" width="4.9318" height="54.2498" transform="rotate(-30 81.0874 33.4467)" fill="white"/>
<rect width="4.9318" height="54.2498" transform="matrix(-0.866025 -0.5 -0.5 0.866025 63.938 30.3075)" fill="white"/>
<rect width="6" height="64" transform="matrix(-4.37114e-08 -1 -1 4.37114e-08 104 95)" fill="white"/>
<ellipse cx="22.5" cy="93" rx="22.5" ry="23" fill="white"/>
<ellipse cx="121.5" cy="93" rx="22.5" ry="23" fill="white"/>
<ellipse cx="72" cy="22.5" rx="23" ry="22.5" fill="white"/>
<path d="M42.0033 144.523C42.0033 143.859 41.7689 143.352 41.3002 143C40.8314 142.641 39.9877 142.266 38.7689 141.875C37.5502 141.477 36.5853 141.086 35.8744 140.703C33.9369 139.656 32.9681 138.246 32.9681 136.473C32.9681 135.551 33.2259 134.73 33.7416 134.012C34.265 133.285 35.0111 132.719 35.9798 132.312C36.9564 131.906 38.0502 131.703 39.2611 131.703C40.4798 131.703 41.5658 131.926 42.5189 132.371C43.472 132.809 44.2103 133.43 44.7337 134.234C45.265 135.039 45.5306 135.953 45.5306 136.977H42.015C42.015 136.195 41.7689 135.59 41.2767 135.16C40.7845 134.723 40.0931 134.504 39.2025 134.504C38.3431 134.504 37.6752 134.688 37.1986 135.055C36.722 135.414 36.4837 135.891 36.4837 136.484C36.4837 137.039 36.7611 137.504 37.3158 137.879C37.8783 138.254 38.7025 138.605 39.7884 138.934C41.7884 139.535 43.2455 140.281 44.1595 141.172C45.0736 142.062 45.5306 143.172 45.5306 144.5C45.5306 145.977 44.972 147.137 43.8548 147.98C42.7377 148.816 41.2337 149.234 39.3431 149.234C38.0306 149.234 36.8353 148.996 35.7572 148.52C34.6791 148.035 33.8548 147.375 33.2845 146.539C32.722 145.703 32.4408 144.734 32.4408 143.633H35.9681C35.9681 145.516 37.0931 146.457 39.3431 146.457C40.1791 146.457 40.8314 146.289 41.3002 145.953C41.7689 145.609 42.0033 145.133 42.0033 144.523ZM62.445 134.785H57.2184V149H53.7028V134.785H48.5466V131.938H62.445V134.785ZM69.8789 149H66.3633V131.938H69.8789V149ZM79.4222 131.938L83.805 144.312L88.1644 131.938H92.7816V149H89.2542V144.336L89.6058 136.285L85.0003 149H82.5863L77.9925 136.297L78.3441 144.336V149H74.8284V131.938H79.4222ZM107.376 145.484H101.212L100.04 149H96.3014L102.653 131.938H105.911L112.298 149H108.559L107.376 145.484ZM102.161 142.637H106.426L104.282 136.25L102.161 142.637Z" fill="white"/>
<defs>
<linearGradient id="paint0_linear_357_37" x1="72" y1="0" x2="72" y2="45" gradientUnits="userSpaceOnUse">
<stop stop-color="#1A1F3D"/>
<stop offset="0.377834" stop-color="#277681"/>
<stop offset="0.685144" stop-color="#257883"/>
<stop offset="1" stop-color="#2FC6B4"/>
</linearGradient>
<linearGradient id="paint1_linear_357_37" x1="22.5" y1="70" x2="22.5" y2="116" gradientUnits="userSpaceOnUse">
<stop stop-color="#1A1F3D"/>
<stop offset="0.377834" stop-color="#277681"/>
<stop offset="0.685144" stop-color="#257883"/>
<stop offset="1" stop-color="#2FC6B4"/>
</linearGradient>
<linearGradient id="paint2_linear_357_37" x1="121.5" y1="70" x2="121.5" y2="116" gradientUnits="userSpaceOnUse">
<stop stop-color="#1A1F3D"/>
<stop offset="0.377834" stop-color="#277681"/>
<stop offset="0.685144" stop-color="#257883"/>
<stop offset="1" stop-color="#2FC6B4"/>
</linearGradient>
</defs>
</svg>
